<svg xmlns="http://www.w3.org/2000/svg" viewBox="0 0 512 512" width="512" height="512">
  <!-- Dark background for mobile -->
  <rect width="512" height="512" fill="#0f172a"/>
  
  <!-- Cloud outline - white -->
  <g stroke="white" stroke-width="8" fill="none" stroke-linecap="round" stroke-linejoin="round">
    <!-- Left bump -->
    <path d="M 120 260 Q 100 260 100 240 Q 100 205 135 205 Q 140 175 175 175 Q 210 175 215 205 Q 255 200 270 240 Q 270 260 250 260"/>
    
    <!-- Connection to right bump -->
    <path d="M 250 260 Q 270 260 270 240"/>
    
    <!-- Right bump -->
    <path d="M 270 240 Q 270 205 305 205 Q 345 205 355 240 Q 380 240 395 260 Q 395 280 370 280 L 120 280 Q 100 280 100 260"/>
  </g>
  
  <!-- Connection dots/nodes on top - white -->
  <g fill="white">
    <circle cx="145" cy="140" r="8"/>
    <line x1="145" y1="140" x2="145" y2="175" stroke="white" stroke-width="5"/>
    
    <circle cx="195" cy="115" r="8"/>
    <line x1="195" y1="115" x2="195" y2="175" stroke="white" stroke-width="5"/>
    
    <circle cx="250" cy="100" r="8"/>
    <line x1="250" y1="100" x2="250" y2="175" stroke="white" stroke-width="5"/>
    
    <circle cx="305" cy="115" r="8"/>
    <line x1="305" y1="115" x2="305" y2="205" stroke="white" stroke-width="5"/>
    
    <circle cx="350" cy="140" r="8"/>
    <line x1="350" y1="140" x2="350" y2="205" stroke="white" stroke-width="5"/>
    
    <circle cx="385" cy="165" r="8"/>
    <line x1="385" y1="165" x2="385" y2="240" stroke="white" stroke-width="5"/>
  </g>
  
  <!-- SKYNET text -->
  <text x="256" y="350" font-family="Arial, sans-serif" font-size="70" font-weight="bold" fill="white" text-anchor="middle" letter-spacing="5">SKYNET</text>
  
  <!-- CONSULTING text -->
  <text x="256" y="390" font-family="Arial, sans-serif" font-size="32" fill="white" text-anchor="middle" letter-spacing="8">CONSULTING</text>
</svg>
