<svg xmlns="http://www.w3.org/2000/svg" viewBox="0 0 64 64" fill="none">
  <defs>
    <linearGradient id="bg" x1="0" y1="0" x2="64" y2="64" gradientUnits="userSpaceOnUse">
      <stop offset="0%" stop-color="#1e40af"/>
      <stop offset="50%" stop-color="#2563eb"/>
      <stop offset="100%" stop-color="#06b6d4"/>
    </linearGradient>
  </defs>
  <rect width="64" height="64" rx="12" fill="url(#bg)"/>
  
  <!-- Shield outline -->
  <path d="M32 12L20 18v12c0 7.5 5 14.5 12 17 7-2.5 12-9.5 12-17V18L32 12z" 
        stroke="white" stroke-width="2.5" fill="none" opacity="0.3"/>
  
  <!-- Letter S -->
  <path d="M28 24c0-2 1.5-3.5 4-3.5s4 1.5 4 3.5c0 1.8-1.2 2.8-3 3.5-2.5 1-4 2-4 4.5 0 2 1.5 3.5 4 3.5s4-1.5 4-3.5" 
        stroke="white" stroke-width="3" stroke-linecap="round" fill="none"/>
  
  <!-- Letter C -->
  <path d="M42 28c0-3-2-5-5-5s-5 2-5 5v8c0 3 2 5 5 5" 
        stroke="white" stroke-width="3" stroke-linecap="round" fill="none" opacity="0.9"/>
</svg>
