<svg viewBox="0 0 200 200" xmlns="http://www.w3.org/2000/svg" width="200" height="200">
  <!-- White background -->
  <rect width="200" height="200" fill="white"/>
  
  <!-- Cloud outline - white strokes on gradient background -->
  <defs>
    <linearGradient id="bgGrad" x1="0%" y1="0%" x2="100%" y2="100%">
      <stop offset="0%" stop-color="#f0f7ff"/>
      <stop offset="100%" stop-color="#e0f2fe"/>
    </linearGradient>
  </defs>
  
  <rect width="200" height="200" fill="url(#bgGrad)"/>
  
  <!-- Cloud outline - Skynet logo style -->
  <g stroke="white" stroke-width="3" fill="none" stroke-linecap="round" stroke-linejoin="round">
    <!-- Left bump -->
    <path d="M 50 100 Q 40 100 40 90 Q 40 75 55 75 Q 58 60 72 60 Q 85 60 88 75 Q 105 73 110 90 Q 110 100 100 100"/>
    
    <!-- Connection to right bump -->
    <path d="M 100 100 Q 110 100 110 90"/>
    
    <!-- Right bump -->
    <path d="M 110 90 Q 110 75 125 75 Q 140 75 145 90 Q 155 90 160 100 Q 160 110 150 110 L 50 110 Q 40 110 40 100"/>
  </g>
  
  <!-- Connection dots/nodes on top - white -->
  <g fill="white">
    <circle cx="60" cy="50" r="3"/>
    <line x1="60" y1="50" x2="60" y2="60" stroke="white" stroke-width="2"/>
    
    <circle cx="80" cy="42" r="3"/>
    <line x1="80" y1="42" x2="80" y2="60" stroke="white" stroke-width="2"/>
    
    <circle cx="100" cy="38" r="3"/>
    <line x1="100" y1="38" x2="100" y2="60" stroke="white" stroke-width="2"/>
    
    <circle cx="120" cy="42" r="3"/>
    <line x1="120" y1="42" x2="120" y2="75" stroke="white" stroke-width="2"/>
    
    <circle cx="140" cy="50" r="3"/>
    <line x1="140" y1="50" x2="140" y2="75" stroke="white" stroke-width="2"/>
    
    <circle cx="155" cy="60" r="3"/>
    <line x1="155" y1="60" x2="155" y2="90" stroke="white" stroke-width="2"/>
  </g>
</svg>
