<svg xmlns="http://www.w3.org/2000/svg" viewBox="0 0 32 32">
  <defs>
    <linearGradient id="grad" x1="0%" y1="0%" x2="100%" y2="100%">
      <stop offset="0%" stop-color="#3b82f6"/>
      <stop offset="100%" stop-color="#0ea5e9"/>
    </linearGradient>
  </defs>
  <rect width="32" height="32" fill="#ffffff"/>
  <g stroke="url(#grad)" stroke-width="0.8" fill="none" stroke-linecap="round" stroke-linejoin="round">
    <path d="M 6 18 Q 4 18 4 16 Q 4 13 8 13 Q 8 10 11 10 Q 13 10 14 13 Q 16 12 17 16 Q 17 18 16 18"/>
    <path d="M 16 16 Q 17 16 17 15 Q 17 13 19 13 Q 22 13 23 16 Q 25 16 26 18 Q 26 20 24 20 L 6 20 Q 4 20 4 18"/>
  </g>
  <g fill="url(#grad)">
    <circle cx="8" cy="8" r="0.7"/>
    <circle cx="12" cy="6" r="0.7"/>
    <circle cx="16" cy="5" r="0.7"/>
    <circle cx="20" cy="6" r="0.7"/>
    <circle cx="24" cy="8" r="0.7"/>
    <circle cx="27" cy="11" r="0.7"/>
  </g>
</svg>
